<svg width="35" height="36" viewBox="0 0 35 36" fill="none" xmlns="http://www.w3.org/2000/svg">
<path d="M30.9846 14.3082C29.8019 13.3771 28.6469 12.4073 27.3511 11.6307C26.0445 10.8483 24.6693 10.2453 23.157 9.9755C21.5207 9.68164 19.9778 9.9631 18.502 10.6828C17.2952 11.2705 16.1978 12.0354 15.0982 12.7974C13.12 14.1697 11.0958 15.4559 8.76833 16.1749C7.29177 16.6306 5.77875 16.837 4.23948 16.8792C4.1651 16.8814 4.09 16.888 4.01562 16.8924" stroke="white" stroke-linecap="round" stroke-linejoin="round"/>
<path d="M8.87769 22.1344V19.1944M13.1892 22.1344V19.1944M17.5001 23.8487V17.4801M21.8109 14.3389V26.9906M26.1225 17.4801V23.8487M29.5313 4.51044H5.46883C5.08206 4.51044 4.71112 4.66408 4.43763 4.93757C4.16414 5.21106 4.0105 5.582 4.0105 5.96877V30.0313C4.0105 30.418 4.16414 30.789 4.43763 31.0625C4.71112 31.336 5.08206 31.4896 5.46883 31.4896H29.5313C29.9181 31.4896 30.289 31.336 30.5625 31.0625C30.836 30.789 30.9897 30.418 30.9897 30.0313V5.96877C30.9897 5.582 30.836 5.21106 30.5625 4.93757C30.289 4.66408 29.9181 4.51044 29.5313 4.51044Z" stroke="white" stroke-linecap="round" stroke-linejoin="round"/>
</svg>
