<svg width="60" height="60" viewBox="0 0 60 60" fill="none" xmlns="http://www.w3.org/2000/svg">
<g clip-path="url(#clip0_49_249)">
<path d="M30 0C37.9565 0 45.5871 3.16071 51.2132 8.7868C56.8393 14.4129 60 22.0435 60 30C60 37.9565 56.8393 45.5871 51.2132 51.2132C45.5871 56.8393 37.9565 60 30 60C22.0435 60 14.4129 56.8393 8.7868 51.2132C3.16071 45.5871 0 37.9565 0 30C0 22.0435 3.16071 14.4129 8.7868 8.7868C14.4129 3.16071 22.0435 0 30 0ZM5.625 30C5.625 36.4647 8.19307 42.6645 12.7643 47.2357C17.3355 51.8069 23.5353 54.375 30 54.375C36.4647 54.375 42.6645 51.8069 47.2357 47.2357C51.8069 42.6645 54.375 36.4647 54.375 30C54.375 23.5353 51.8069 17.3355 47.2357 12.7643C42.6645 8.19307 36.4647 5.625 30 5.625C23.5353 5.625 17.3355 8.19307 12.7643 12.7643C8.19307 17.3355 5.625 23.5353 5.625 30ZM23.9213 19.6013L39.9112 29.1975C40.0494 29.281 40.1637 29.3987 40.2431 29.5393C40.3224 29.6799 40.3641 29.8386 40.3641 30C40.3641 30.1614 40.3224 30.3201 40.2431 30.4607C40.1637 30.6013 40.0494 30.719 39.9112 30.8025L23.9213 40.3988C23.7791 40.4844 23.6167 40.5308 23.4507 40.5331C23.2847 40.5354 23.1211 40.4937 22.9766 40.4121C22.832 40.3304 22.7117 40.2119 22.628 40.0686C22.5443 39.9252 22.5001 39.7622 22.5 39.5962V20.4075C22.4994 20.2412 22.5431 20.0777 22.6266 19.9339C22.71 19.79 22.8303 19.6709 22.9749 19.5889C23.1196 19.5068 23.2835 19.4647 23.4498 19.4669C23.6161 19.4691 23.7788 19.5154 23.9213 19.6013Z" fill="#EE10B0"/>
</g>
<defs>
<clipPath id="clip0_49_249">
<rect width="60" height="60" fill="white"/>
</clipPath>
</defs>
</svg>
