<svg width="1440" height="508" viewBox="0 0 1440 508" fill="none" xmlns="http://www.w3.org/2000/svg">
<path d="M-29 195.49C-29 195.49 680 161.5 721 160.5C762 159.5 1087 138.979 1215 117.49C1343 96 1381.5 89.9896 1474 8.48956C1566.5 -73.0105 1439.5 459.129 1439.5 459.129H-0.5L-29 195.49Z" fill="#69425C"/>
<path d="M-0.5 182C-0.5 182 812 165 856 161.49C900 157.979 1050 160.99 1217.5 141.49C1385 121.99 1377 115.49 1474 68.9896C1571 22.4896 1439.5 507.99 1439.5 507.99H-0.5V182Z" fill="#533248"/>
<rect x="-0.5" y="171.99" width="1440" height="336" fill="#412C3A"/>
</svg>
