<svg width="40" height="41" viewBox="0 0 40 41" fill="none" xmlns="http://www.w3.org/2000/svg">
<path d="M29.375 1.73975H10.625C5.44733 1.73975 1.25 5.93708 1.25 11.1147V29.8647C1.25 35.0424 5.44733 39.2397 10.625 39.2397H29.375C34.5527 39.2397 38.75 35.0424 38.75 29.8647V11.1147C38.75 5.93708 34.5527 1.73975 29.375 1.73975Z" stroke="white" stroke-width="2" stroke-linecap="round" stroke-linejoin="round"/>
<path d="M30.3124 10.1772H30.3312M27.4999 19.3085C27.7313 20.869 27.4648 22.4627 26.7382 23.8629C26.0117 25.2631 24.8621 26.3986 23.453 27.1079C22.0439 27.8171 20.447 28.064 18.8895 27.8134C17.332 27.5627 15.8932 26.8274 14.7778 25.7119C13.6623 24.5964 12.9269 23.1576 12.6763 21.6001C12.4257 20.0427 12.6726 18.4458 13.3818 17.0367C14.091 15.6276 15.2265 14.478 16.6268 13.7514C18.027 13.0249 19.6207 12.7583 21.1812 12.9897C22.7729 13.2258 24.2465 13.9675 25.3844 15.1053C26.5222 16.2432 27.2639 17.7168 27.4999 19.3085Z" stroke="white" stroke-width="2" stroke-linecap="round" stroke-linejoin="round"/>
</svg>
